<svg width="278" height="378" viewBox="0 0 278 378" fill="none" xmlns="http://www.w3.org/2000/svg">
<g clip-path="url(#clip0_58_40)">
<path d="M102.149 138.802C107.733 138.802 112.259 134.278 112.259 128.698C112.259 123.117 107.733 118.593 102.149 118.593C96.5663 118.593 92.0403 123.117 92.0403 128.698C92.0403 134.278 96.5663 138.802 102.149 138.802Z" fill="#EE6300"/>
<path d="M273.987 131.579L240.282 117.258C241.771 124.246 242.556 131.493 242.556 138.925C242.556 146.356 241.774 153.571 240.292 160.544L273.237 146.3C274.444 145.876 275.542 145.091 276.363 143.986C279.164 140.218 278.373 133.91 273.988 131.579H273.987Z" fill="#EE6300"/>
<path d="M138.999 47.306C88.3692 47.306 47.3252 88.3323 47.3252 138.941C47.3252 189.549 88.3692 230.576 138.999 230.576C189.63 230.576 230.674 189.549 230.674 138.941C230.674 88.3323 189.63 47.306 138.999 47.306ZM83.4803 128.697C83.4803 118.392 91.8382 110.036 102.149 110.036C112.461 110.036 120.819 118.391 120.819 128.697C120.819 139.004 112.461 147.359 102.149 147.359C91.8382 147.359 83.4803 139.004 83.4803 128.697ZM164.585 178.726C161.194 184.87 154.003 192.193 138.999 192.193C128.591 192.193 120.216 187.591 114.781 178.886C110.796 172.504 109.837 166.14 109.799 165.872C109.623 164.664 110.098 163.453 111.046 162.685C111.995 161.918 113.278 161.705 114.423 162.126C114.733 162.24 145.528 173.351 162.936 162.441C164.004 161.772 165.35 161.735 166.453 162.346C167.555 162.955 168.238 164.116 168.238 165.375C168.238 165.649 168.197 172.181 164.586 178.724L164.585 178.726ZM193.071 132.069C193.071 134.3 191.262 136.108 189.031 136.108C186.799 136.108 184.99 134.3 184.99 132.069C184.99 131.969 184.995 131.868 185.003 131.77C184.947 130.799 184.675 127.609 183.389 124.551C181.081 119.062 177.458 118.428 174.932 118.428C172.205 118.428 170.121 119.19 168.562 120.761C166.846 122.488 166.006 124.953 165.604 126.717C165.122 128.834 165.128 130.515 165.128 130.531V130.515H165.074C164.759 132.43 163.094 133.892 161.089 133.892C159.084 133.892 157.492 132.494 157.126 130.641H157.049C157.049 130.578 157.046 130.38 157.054 130.072C157.051 130 157.049 129.928 157.049 129.855C157.049 129.652 157.064 129.451 157.094 129.256C157.157 128.269 157.31 126.837 157.665 125.196C158.555 121.098 160.324 117.613 162.779 115.119C165.895 111.955 169.984 110.351 174.932 110.351C182.28 110.351 187.965 114.372 190.942 121.672C193.002 126.724 193.093 131.738 193.096 131.948H193.068C193.069 131.99 193.071 132.03 193.071 132.07V132.069Z" fill="#EE6300"/>
<path d="M225.909 82.6204L239.126 49.2676C239.679 48.1137 239.901 46.7832 239.7 45.4205C239.016 40.7771 233.994 36.8757 229.243 38.3262L195.286 52.0209C207.517 59.954 217.968 70.397 225.909 82.6204Z" fill="#EE6300"/>
<path d="M138.986 35.401C146.398 35.401 153.629 36.1811 160.601 37.6604L146.365 4.76223C145.94 3.55524 145.155 2.45786 144.049 1.63743C140.28 -1.16197 133.968 -0.371542 131.637 4.01103L117.323 37.6708C124.31 36.1845 131.556 35.401 138.987 35.401H138.986Z" fill="#EE6300"/>
<path d="M52.0352 82.6608C59.9672 70.4385 70.4077 59.9956 82.6283 52.0578L49.2889 38.8582C48.1345 38.3054 46.8034 38.0839 45.4401 38.2847C40.7947 38.9689 36.8916 43.9885 38.3427 48.7368L52.0352 82.662V82.6608Z" fill="#EE6300"/>
<path d="M35.4163 138.926C35.4163 131.527 36.1944 124.31 37.6709 117.351L4.76546 131.579C3.55794 132.003 2.46009 132.788 1.63931 133.894C-1.16246 137.661 -0.370528 143.97 4.01393 146.3L37.6951 160.61C36.2036 153.616 35.4174 146.363 35.4174 138.925L35.4163 138.926Z" fill="#EE6300"/>
<path d="M52.0871 195.269L38.8737 228.613C38.3207 229.767 38.0991 231.097 38.2999 232.46C38.9845 237.103 44.0062 241.005 48.7566 239.554L82.7241 225.856C70.4885 217.928 60.0329 207.489 52.0871 195.27V195.269Z" fill="#EE6300"/>
<path d="M138.985 242.451C131.579 242.451 124.354 241.672 117.389 240.195L131.636 273.118C132.061 274.325 132.846 275.423 133.952 276.243C137.721 279.042 144.033 278.252 146.364 273.869L160.694 240.172C153.694 241.664 146.431 242.452 138.987 242.452L138.985 242.451Z" fill="#EE6300"/>
<path d="M225.946 195.175C218.01 207.408 207.56 217.863 195.327 225.805L228.712 239.023C229.867 239.576 231.198 239.798 232.561 239.597C237.206 238.913 241.11 233.893 239.658 229.145L225.947 195.175H225.946Z" fill="#EE6300"/>
<path d="M92.1498 332.029C93.871 332.029 95.336 332.619 96.5481 333.797C97.758 334.976 98.3652 336.426 98.3652 338.146C98.3652 339.866 97.7591 341.333 96.5481 342.542C95.336 343.754 93.871 344.359 92.1498 344.359H67.6728V349.711C69.0119 350.222 70.2852 350.858 71.4974 351.621L93.2973 366.148C96.293 368.569 96.9302 371.531 95.209 375.037C93.7418 377.011 91.9894 378 89.9507 378C88.8032 378 87.7192 377.649 86.6998 376.949L64.8999 362.517C62.5414 361.052 60.1818 361.052 57.8245 362.517L36.0246 376.949C32.6456 378.796 29.7769 378.158 27.4196 375.038C25.6983 371.533 26.3344 368.57 29.3313 366.149L51.1312 351.623C52.4703 350.795 53.8706 350.126 55.3379 349.616V344.36H30.8609C29.1396 344.36 27.6724 343.755 26.4626 342.544C25.2504 341.334 24.6455 339.868 24.6455 338.147C24.6455 336.427 25.2504 334.978 26.4626 333.798C27.6724 332.62 29.1396 332.03 30.8609 332.03H92.1498V332.029ZM87.6557 329.067C85.6793 329.067 84.0227 328.383 82.6836 327.012C81.3445 325.642 80.6761 323.97 80.6761 321.995V316.547C80.6761 314.764 79.591 313.713 77.4253 313.393H34.5896C32.9319 313.393 31.4658 312.82 30.1913 311.673C28.9157 310.526 28.2461 309.093 28.1838 307.372C28.1838 305.589 28.7725 304.075 29.9523 302.833C31.131 301.59 32.5821 300.969 34.3033 300.969H81.8236C85.393 300.969 88.4211 302.228 90.9065 304.745C93.392 307.263 94.6353 310.273 94.6353 313.776V321.996C94.6353 323.971 93.9496 325.644 92.5793 327.013C91.2078 328.384 89.5674 329.068 87.6545 329.068L87.6557 329.067Z" fill="#EE6300"/>
<path d="M123.797 315.018C122.012 315.018 120.499 315.639 119.256 316.882C118.012 318.124 117.391 319.605 117.391 321.325V362.326H137.279C139.001 362.326 140.466 362.932 141.678 364.143C142.888 365.354 143.495 366.786 143.495 368.443C143.495 370.1 142.889 371.628 141.678 372.84C140.466 374.049 139.001 374.656 137.279 374.656H109.934C108.148 374.656 106.636 374.035 105.392 372.792C104.149 371.55 103.528 370.036 103.528 368.253V320.18C103.528 315.338 105.249 311.196 108.692 307.755C112.134 304.314 116.276 302.594 121.121 302.594H137.279C139.001 302.594 140.466 303.2 141.678 304.41C142.888 305.622 143.495 307.086 143.495 308.807C143.495 310.527 142.889 311.994 141.678 313.203C140.466 314.415 139.001 315.019 137.279 315.019H123.798L123.797 315.018ZM153.246 376.089C151.588 376.089 150.153 375.483 148.944 374.273C147.731 373.061 147.127 371.597 147.127 369.876V344.359H142.155C140.433 344.359 138.966 343.754 137.756 342.542C136.544 341.333 135.939 339.899 135.939 338.242C135.939 336.585 136.544 335.057 137.756 333.845C138.966 332.636 140.433 332.029 142.155 332.029H147.127V307.467C147.127 305.811 147.731 304.377 148.944 303.166C150.153 301.957 151.588 301.35 153.246 301.35C154.904 301.35 156.432 301.956 157.644 303.166C158.854 304.378 159.461 305.811 159.461 307.467V369.876C159.461 371.597 158.855 373.061 157.644 374.273C156.432 375.482 154.967 376.089 153.246 376.089ZM175.142 307.467V369.876C175.142 371.597 174.536 373.061 173.325 374.273C172.113 375.482 170.648 376.089 168.927 376.089C167.205 376.089 165.834 375.483 164.624 374.273C163.412 373.061 162.807 371.597 162.807 369.876V307.467C162.807 305.811 163.412 304.377 164.624 303.166C165.834 301.957 167.269 301.35 168.927 301.35C170.584 301.35 172.113 301.956 173.325 303.166C174.535 304.378 175.142 305.811 175.142 307.467Z" fill="#EE6300"/>
<path d="M210.614 302.784C217.116 302.784 222.646 305.078 227.203 309.665C231.76 314.253 234.04 319.764 234.04 326.199V351.431C234.04 357.868 231.76 363.378 227.203 367.966C222.646 372.554 217.116 374.846 210.614 374.846H206.79C200.288 374.846 194.757 372.552 190.201 367.966C185.643 363.378 183.365 357.868 183.365 351.431V326.199C183.365 319.764 185.643 314.253 190.201 309.665C194.757 305.077 200.288 302.784 206.79 302.784H210.614ZM220.271 350.953V326.678C220.271 323.494 219.139 320.785 216.877 318.555C214.613 316.325 211.889 315.21 208.702 315.21C205.514 315.21 202.805 316.325 200.574 318.555C198.343 320.785 197.228 323.494 197.228 326.678V350.953C197.228 354.14 198.342 356.864 200.574 359.124C202.805 361.387 205.513 362.517 208.702 362.517C211.89 362.517 214.613 361.386 216.877 359.124C219.139 356.864 220.271 354.139 220.271 350.953ZM246.374 301.351C248.285 301.351 249.926 302.02 251.297 303.358C252.667 304.695 253.353 306.321 253.353 308.232V369.207C253.353 371.119 252.667 372.744 251.297 374.081C249.926 375.42 248.285 376.088 246.374 376.088C244.462 376.088 242.835 375.419 241.497 374.081C240.158 372.744 239.49 371.118 239.49 369.207V308.232C239.49 306.32 240.159 304.695 241.497 303.358C242.835 302.019 244.462 301.351 246.374 301.351Z" fill="#EE6300"/>
</g>
<defs>
<clipPath id="clip0_58_40">
<rect width="278" height="378" fill="white"/>
</clipPath>
</defs>
</svg>
