<svg width="51" height="49" viewBox="0 0 51 49" fill="none" xmlns="http://www.w3.org/2000/svg">
<g clip-path="url(#clip0_5_15)">
<path d="M48.5804 6.74065C47.5098 5.66171 46.0864 5.06769 44.5723 5.06769H43.579V3.68843C43.579 3.1991 43.1854 2.80219 42.6996 2.80219H36.4969C36.0114 2.80219 35.6175 3.19885 35.6175 3.68843V5.06769H33.9718L33.7416 3.02234C33.5478 1.29961 32.1042 0.000518799 30.3838 0.000518799H19.8565C18.1361 0.000518799 16.6925 1.29961 16.4986 3.02234L16.2685 5.06769H5.66821C4.15409 5.06769 2.73071 5.66196 1.66008 6.74065C0.589688 7.81959 0 9.25401 0 10.7799V33.9557C0 35.4815 0.589688 36.9159 1.66032 37.9949C2.73096 39.0738 4.15433 39.6681 5.66845 39.6681H14.6383C14.2727 38.9037 13.9251 38.1459 13.5976 37.3977C13.5054 37.1871 13.3249 36.775 13.3249 36.775C13.2816 36.6762 13.2388 36.5784 13.196 36.481H5.66821C4.28643 36.481 3.16252 35.3482 3.16252 33.9559V10.7799C3.16252 9.38738 4.28667 8.25475 5.66821 8.25475H19.0926L19.6409 3.38125C19.6534 3.27068 19.746 3.18733 19.8565 3.18733H30.3838C30.4942 3.18733 30.5867 3.27068 30.5993 3.38125L31.1476 8.25475H44.5721C45.9538 8.25475 47.0777 9.38762 47.0777 10.7799V33.9557C47.0777 35.3482 45.9536 36.4808 44.5721 36.4808H37.0445C37.002 36.5781 36.9591 36.6759 36.9158 36.7745L36.6429 37.3974C36.3152 38.1457 35.9676 38.9034 35.6022 39.6678H44.5721C46.0862 39.6678 47.5095 39.0736 48.5802 37.9946C49.6508 36.9157 50.2405 35.4813 50.2405 33.9554V10.7799C50.2405 9.25401 49.6508 7.81959 48.5802 6.74065H48.5804Z" fill="#EE6300"/>
<path d="M25.1204 28.5849C27.9114 28.5849 30.1741 26.3048 30.1741 23.492C30.1741 20.6793 27.9114 18.3991 25.1204 18.3991C22.3293 18.3991 20.0667 20.6793 20.0667 23.492C20.0667 26.3048 22.3293 28.5849 25.1204 28.5849Z" fill="#EE6300"/>
<path d="M37.8948 20.3506C37.7232 19.5057 37.4673 18.6747 37.134 17.8806C36.8071 17.1015 36.4025 16.3501 35.9313 15.6475C35.4652 14.9522 34.93 14.2983 34.3406 13.7043C33.7511 13.1103 33.1023 12.571 32.4124 12.1012C31.7152 11.6266 30.9696 11.2189 30.1964 10.8892C29.4085 10.5533 28.5838 10.2954 27.7455 10.1226C26.8865 9.94556 26.0032 9.85559 25.1201 9.85559C24.237 9.85559 23.3537 9.94532 22.4947 10.1226C21.6564 10.2954 20.832 10.5533 20.0438 10.8892C19.2707 11.2187 18.5251 11.6264 17.8278 12.1012C17.1379 12.571 16.4891 13.1103 15.8997 13.7043C15.3102 14.2983 14.775 14.9522 14.3089 15.6475C13.838 16.3501 13.4332 17.1015 13.1062 17.8806C12.7729 18.6747 12.517 19.5057 12.3455 20.3506C12.1698 21.2162 12.0806 22.1064 12.0806 22.9963C12.0806 27.353 13.392 30.1775 15.9785 36.0853C16.9032 38.1971 17.9869 40.3876 19.1999 42.5962C20.071 44.1824 20.9877 45.7411 21.924 47.229C22.2768 47.7894 22.7682 48.2486 23.3455 48.5567C23.8887 48.8468 24.5025 49.0002 25.1201 49.0002C25.7378 49.0002 26.3516 48.8468 26.8948 48.5567C27.4718 48.2486 27.9635 47.7894 28.3162 47.229C29.2526 45.7411 30.169 44.1824 31.0404 42.5962C32.2533 40.3876 33.3373 38.1971 34.2617 36.0853C36.8482 30.1775 38.1597 27.353 38.1597 22.9963C38.1597 22.1064 38.0706 21.2162 37.8948 20.3506ZM33.676 27.1348C33.4431 27.6894 33.1551 28.2243 32.8196 28.7247C32.4876 29.2201 32.1061 29.6859 31.686 30.1093C31.2659 30.5327 30.8037 30.9169 30.312 31.2518C29.8155 31.5898 29.2849 31.8801 28.7344 32.1147C27.5893 32.6028 26.3732 32.8504 25.1199 32.8504C23.8665 32.8504 22.6504 32.6028 21.5054 32.1147C20.9551 31.8801 20.4243 31.5898 19.9277 31.2518C19.4361 30.9171 18.9739 30.5327 18.5538 30.1093C18.1336 29.6859 17.7524 29.2201 17.4201 28.7247C17.0846 28.2243 16.7966 27.6896 16.5638 27.1348C16.0795 25.9809 15.8337 24.7553 15.8337 23.4923C15.8337 22.2292 16.0795 21.0037 16.5638 19.8497C16.7966 19.2952 17.0846 18.7602 17.4201 18.2599C17.7522 17.7644 18.1336 17.2986 18.5538 16.8752C18.9739 16.4518 19.4361 16.0677 19.9277 15.7328C20.4243 15.3947 20.9548 15.1044 21.5054 14.8698C22.6504 14.3817 23.8665 14.1341 25.1199 14.1341C26.3732 14.1341 27.5893 14.3817 28.7344 14.8698C29.2847 15.1044 29.8155 15.3947 30.312 15.7328C30.8037 16.0674 31.2659 16.4518 31.686 16.8752C32.1061 17.2986 32.4873 17.7644 32.8196 18.2599C33.1551 18.7602 33.4431 19.2949 33.676 19.8497C34.1603 21.0037 34.406 22.2292 34.406 23.4923C34.406 24.7553 34.1603 25.9809 33.676 27.1348Z" fill="#EE6300"/>
</g>
<defs>
<clipPath id="clip0_5_15">
<rect width="50.2405" height="49" fill="white"/>
</clipPath>
</defs>
</svg>
