<svg width="99" height="126" viewBox="0 0 99 126" fill="none" xmlns="http://www.w3.org/2000/svg">
<g clip-path="url(#clip0_6_301)">
<path d="M94.9087 43.3983C92.8171 41.2905 90.0363 40.13 87.0783 40.13H85.1378V37.4354C85.1378 36.4794 84.3688 35.704 83.4197 35.704H71.3019C70.3533 35.704 69.5838 36.4789 69.5838 37.4354V40.13H66.3687L65.9191 36.1341C65.5403 32.7685 62.7201 30.2305 59.359 30.2305H38.7924C35.4314 30.2305 32.6112 32.7685 32.2324 36.1341L31.7828 40.13H11.0736C8.1156 40.13 5.33483 41.2909 3.2432 43.3983C1.15204 45.5062 0 48.3085 0 51.2895V96.5667C0 99.5477 1.15204 102.35 3.24367 104.458C5.33531 106.566 8.11608 107.727 11.0741 107.727H28.598C27.8837 106.233 27.2046 104.753 26.5649 103.291C26.3847 102.88 26.0321 102.075 26.0321 102.075C25.9475 101.882 25.8638 101.69 25.7802 101.5H11.0736C8.37414 101.5 6.17843 99.2871 6.17843 96.5672V51.2895C6.17843 48.5691 8.37462 46.3563 11.0736 46.3563H37.3001L38.3714 36.8353C38.3956 36.6193 38.5767 36.4564 38.7924 36.4564H59.359C59.5748 36.4564 59.7554 36.6193 59.7801 36.8353L60.8513 46.3563H87.0778C89.7773 46.3563 91.973 48.5696 91.973 51.2895V96.5667C91.973 99.2871 89.7768 101.5 87.0778 101.5H72.3717C72.2885 101.69 72.2049 101.881 72.1203 102.074L71.5871 103.291C70.9469 104.752 70.2677 106.233 69.5539 107.726H87.0778C90.0358 107.726 92.8166 106.565 94.9082 104.457C96.9999 102.35 98.1519 99.5472 98.1519 96.5662V51.2895C98.1519 48.3085 96.9999 45.5062 94.9082 43.3983H94.9087Z" fill="#EE6300"/>
<path d="M49.0761 86.0747C54.5289 86.0747 58.9493 81.6201 58.9493 76.125C58.9493 70.6299 54.5289 66.1753 49.0761 66.1753C43.6234 66.1753 39.203 70.6299 39.203 76.125C39.203 81.6201 43.6234 86.0747 49.0761 86.0747Z" fill="#EE6300"/>
<path d="M74.0327 69.9877C73.6977 68.3373 73.1977 66.7136 72.5466 65.1623C71.9078 63.6402 71.1175 62.1722 70.1969 60.7995C69.2863 59.4412 68.2407 58.1639 67.0891 57.0034C65.9376 55.8429 64.67 54.7892 63.3222 53.8715C61.9601 52.9443 60.5034 52.1478 58.993 51.5036C57.4536 50.8474 55.8425 50.3436 54.2047 50.0059C52.5266 49.6601 50.8009 49.4843 49.0757 49.4843C47.3505 49.4843 45.6248 49.6596 43.9466 50.0059C42.3089 50.3436 40.6982 50.8474 39.1584 51.5036C37.648 52.1473 36.1913 52.9438 34.8292 53.8715C33.4813 54.7892 32.2138 55.8429 31.0622 57.0034C29.9107 58.1639 28.8651 59.4412 27.9545 60.7995C27.0344 62.1722 26.2435 63.6402 25.6048 65.1623C24.9537 66.7136 24.4537 68.3373 24.1186 69.9877C23.7755 71.6789 23.6011 73.418 23.6011 75.1566C23.6011 83.668 26.1632 89.186 31.2162 100.728C33.0227 104.853 35.14 109.133 37.5097 113.448C39.2116 116.547 41.0024 119.592 42.8317 122.498C43.5208 123.593 44.4808 124.49 45.6086 125.092C46.6699 125.659 47.869 125.959 49.0757 125.959C50.2824 125.959 51.4815 125.659 52.5427 125.092C53.6701 124.49 54.6306 123.593 55.3197 122.498C57.149 119.592 58.9393 116.547 60.6417 113.448C63.0114 109.133 65.1291 104.853 66.9351 100.728C71.9881 89.186 74.5503 83.668 74.5503 75.1566C74.5503 73.418 74.3763 71.6789 74.0327 69.9877ZM65.7907 83.2417C65.3359 84.3251 64.7732 85.3702 64.1178 86.3477C63.469 87.3157 62.7238 88.2257 61.903 89.0528C61.0823 89.88 60.1793 90.6305 59.2188 91.2848C58.2487 91.9452 57.2122 92.5123 56.1367 92.9707C53.8996 93.9243 51.5238 94.408 49.0752 94.408C46.6266 94.408 44.2508 93.9243 42.0137 92.9707C40.9387 92.5123 39.9017 91.9452 38.9317 91.2848C37.9711 90.631 37.0681 89.88 36.2474 89.0528C35.4266 88.2257 34.6818 87.3157 34.0326 86.3477C33.3772 85.3702 32.8145 84.3256 32.3597 83.2417C31.4135 80.9873 30.9334 78.593 30.9334 76.1255C30.9334 73.6579 31.4135 71.2636 32.3597 69.0092C32.8145 67.9258 33.3772 66.8808 34.0326 65.9032C34.6814 64.9353 35.4266 64.0253 36.2474 63.1981C37.0681 62.371 37.9711 61.6205 38.9317 60.9662C39.9017 60.3057 40.9382 59.7387 42.0137 59.2803C44.2508 58.3267 46.6266 57.843 49.0752 57.843C51.5238 57.843 53.8996 58.3267 56.1367 59.2803C57.2117 59.7387 58.2487 60.3057 59.2188 60.9662C60.1793 61.62 61.0823 62.371 61.903 63.1981C62.7238 64.0253 63.4686 64.9353 64.1178 65.9032C64.7732 66.8808 65.3359 67.9254 65.7907 69.0092C66.737 71.2636 67.217 73.6579 67.217 76.1255C67.217 78.593 66.737 80.9873 65.7907 83.2417Z" fill="#EE6300"/>
</g>
<path d="M17.7939 6.21708C17.8333 9.07125 17.8726 13.8545 17.8333 14.4253C17.7742 15.2717 17.1837 15.8622 16.3767 15.9016C15.609 15.9409 14.7429 15.4292 14.7035 14.4253C14.6838 13.8741 14.5854 11.0593 14.5067 9.07125C14.5067 9.07125 14.5854 7.39812 13.8177 8.55947C13.2469 9.40588 12.5973 10.3507 12.3808 10.5672C11.9871 10.9806 11.5344 11.1971 11.0423 11.1971C10.5305 11.1971 10.0384 10.9412 9.5857 10.4688C9.15265 9.97671 8.52277 9.22873 8.01098 8.59884C7.77478 8.30358 7.36141 7.98864 7.3811 8.97283C7.42047 10.8625 7.36141 13.8545 7.36141 14.3269C7.32205 15.2126 6.63311 15.9213 5.74733 15.9606C5.72765 15.9606 5.68828 15.9803 5.64891 15.9803C5.13713 15.9803 4.25135 15.7638 4.09388 14.3859C3.99546 13.4608 4.0742 8.34295 4.11356 5.60688V5.52815C4.11356 4.66205 4.13325 4.05185 4.13325 3.81564C4.13325 2.57555 4.54661 1.84725 5.4127 1.55199C5.57018 1.51262 5.72765 1.49294 5.86543 1.49294C6.65279 1.49294 7.28268 2.16219 7.9913 2.98892C8.66055 3.77627 9.68412 5.31162 10.3927 6.33519C10.7667 6.88634 11.2785 6.65013 11.495 6.29582C12.4596 4.7211 14.0736 2.20156 14.5067 1.84725C14.92 1.51262 15.4712 1.31578 15.9633 1.31578C16.3373 1.31578 16.6719 1.43389 16.9475 1.65041C17.7152 2.2803 17.7742 3.02828 17.7742 4.03217C17.7742 4.26837 17.7939 5.0951 17.7939 6.15803V6.21708ZM20.2055 8.83505C19.6347 7.59496 19.615 6.82728 20.5007 6.21708C21.3865 5.60688 22.4298 6.09898 23.1778 7.20128C23.5714 7.77211 24.1816 8.71694 24.6344 9.40588C24.969 9.91766 25.5005 9.91766 25.9138 9.40588C26.5831 8.53979 27.5673 7.28002 28.0003 6.82728C28.4531 6.35487 29.4766 5.72498 30.3624 6.6895C31.2679 7.65401 30.8348 8.53979 30.0081 9.64209C29.2011 10.7444 24.8312 16.7283 23.9454 17.4763C23.1974 18.1062 22.5676 18.7164 21.4259 17.8109C20.5795 17.1614 21.17 15.8819 21.8589 14.8583C22.1148 14.4647 22.3707 14.1497 22.5872 13.9135C22.9219 13.5198 22.9809 13.0671 22.6857 12.634C21.918 11.5317 20.5007 9.46493 20.2055 8.83505ZM50.7619 1.31578C52.7893 1.4142 54.3837 3.3826 54.3247 5.68562C54.2656 7.73275 53.1633 10.0358 50.88 10.2326C50.0139 10.3113 49.01 10.3507 47.9077 10.3507C47.7109 10.3507 47.5534 10.331 47.3762 10.331C46.5692 10.4098 46.2739 10.9806 46.2739 11.5121C46.2739 12.7128 46.2543 14.3662 46.2149 14.7993C46.0968 15.7835 45.2504 16.3149 44.5221 16.3149C43.8135 16.3149 42.967 15.8622 42.8293 14.8977C42.7112 14.2088 42.7702 7.63433 42.7899 4.4849C42.7899 3.79596 42.7899 3.28418 42.7899 3.10702C42.7899 1.98504 43.4001 1.2961 44.4827 1.17799C44.7189 1.15831 45.1323 1.13863 45.6834 1.13863C46.8645 1.13863 48.7148 1.19768 50.7619 1.31578ZM46.3724 6.82728C46.392 7.14223 46.4905 7.14223 46.8054 7.14223L47.1007 7.16191C47.3566 7.16191 47.7502 7.16191 48.1439 7.16191C48.9313 7.16191 49.5218 7.14223 49.8761 7.12254C50.6438 7.06349 51.0375 6.57139 51.0965 5.56751C51.1359 4.95731 50.8406 4.32742 50.191 4.26837C49.4627 4.20932 47.1991 4.16995 46.8251 4.16995C46.5692 4.16995 46.4117 4.26837 46.4117 4.7211C46.4117 4.81952 46.4117 5.05573 46.392 5.31162C46.3724 5.8234 46.3527 6.53203 46.3724 6.82728ZM59.8176 13.9135C59.7585 15.1339 59.7388 15.9213 58.3413 16C57.0421 16.0984 56.6288 14.8386 56.5894 13.6773C56.5303 12.2797 56.55 4.58332 56.6878 3.42196C56.8256 2.26061 57.6917 1.74883 58.4397 1.74883C59.168 1.74883 59.9554 2.3984 59.916 3.59912C59.8766 4.81952 59.8569 12.9096 59.8176 13.9135ZM68.9383 15.4685C68.3872 15.7441 67.4817 16.0197 66.3597 15.9213C64.411 15.7638 62.5017 14.5434 62.4032 12.0435C62.3245 10.272 62.6985 8.18548 65.218 6.96507C67.5604 5.8234 70.6114 6.96507 71.6153 8.55947C73.0719 10.8428 72.4617 13.6773 72.442 14.6418C72.4224 15.6851 71.7137 16.1772 70.828 16.1772C70.4343 16.1772 70.1587 15.9606 69.9619 15.7441C69.706 15.4488 69.3714 15.2914 68.9383 15.4685ZM69.2139 11.9451C69.6272 11.1184 69.4107 9.79956 67.8754 9.3862C66.3203 8.97283 65.6117 10.0358 65.3755 11.0593C65.159 12.0632 65.8676 13.1852 67.2061 13.1852C68.0919 13.1852 68.8596 12.6734 69.2139 11.9451ZM82.3361 15.8622C81.4504 16.1181 80.3678 16.2362 78.4781 15.7638C76.6081 15.3307 75.0925 13.5789 74.935 11.2365C74.7972 8.87441 76.0176 6.65013 78.5765 5.96119C80.6236 5.39036 82.3165 5.96119 83.0841 6.45329C83.5762 6.76823 84.2061 7.39812 83.8321 8.48074C83.5369 9.36651 82.7889 9.74051 81.9622 9.44525C80.6827 8.99252 78.9308 8.91378 78.5765 10.5475C78.3797 11.5514 78.8521 12.3978 80.4859 12.5947C81.352 12.6931 82.3952 12.3978 82.966 12.5356C83.34 12.6144 84.0487 12.9884 84.0487 14.1103C84.0487 15.1536 83.1629 15.626 82.3361 15.8622ZM85.8736 10.5475C85.8736 8.67758 87.0546 6.23677 89.3576 6.00056C91.6606 5.74467 93.0779 6.55171 93.8849 8.028C94.6723 9.48462 94.2983 10.9609 93.0385 11.768C92.3496 12.201 90.9323 12.2601 90.1056 12.2601C89.7316 12.2601 89.5545 12.4766 89.8104 12.6931C90.1647 12.9884 90.8733 13.2639 92.2512 12.949C93.196 12.7325 94.2983 13.8151 93.6881 14.8977C93.3338 15.5473 92.1527 16.3346 89.6726 15.9016C87.6451 15.5473 85.8736 14.2875 85.8736 10.5475ZM91.5229 9.20904C91.3457 8.55947 90.5583 8.22484 89.7907 8.5201C89.0427 8.81536 88.9836 9.58304 89.3576 9.8783C89.9088 10.2917 91.7394 9.97671 91.5229 9.20904Z" fill="black"/>
<defs>
<clipPath id="clip0_6_301">
<rect width="98.1519" height="95.7284" fill="white" transform="translate(0 30.23)"/>
</clipPath>
</defs>
</svg>
