<svg width="40" height="40" viewBox="0 0 40 40" fill="none" xmlns="http://www.w3.org/2000/svg">
<path d="M28.3333 5C29.2173 5 30.0652 5.35119 30.6903 5.97631C31.3154 6.60143 31.6666 7.44928 31.6666 8.33333V33.3333C31.6665 33.6252 31.5898 33.9119 31.4441 34.1648C31.2984 34.4177 31.0888 34.6279 30.8363 34.7744C30.5839 34.9209 30.2974 34.9985 30.0056 34.9995C29.7137 35.0004 29.4267 34.9248 29.1733 34.78L21.6533 30.4833C21.1497 30.1957 20.5798 30.0444 19.9999 30.0444C19.42 30.0444 18.8501 30.1957 18.3466 30.4833L10.8266 34.78C10.5732 34.9248 10.2861 35.0004 9.99429 34.9995C9.70242 34.9985 9.41594 34.9209 9.16349 34.7744C8.91104 34.6279 8.70149 34.4177 8.55578 34.1648C8.41008 33.9119 8.33335 33.6252 8.33325 33.3333V8.33333C8.33325 7.44928 8.68444 6.60143 9.30956 5.97631C9.93468 5.35119 10.7825 5 11.6666 5H28.3333Z" fill="black" stroke="black" stroke-width="2" stroke-linecap="round" stroke-linejoin="round"/>
</svg>
