<svg width="278" height="278" viewBox="0 0 278 278" fill="none" xmlns="http://www.w3.org/2000/svg">
<path d="M102.149 138.802C107.732 138.802 112.258 134.278 112.258 128.697C112.258 123.116 107.732 118.592 102.149 118.592C96.5653 118.592 92.0393 123.116 92.0393 128.697C92.0393 134.278 96.5653 138.802 102.149 138.802Z" fill="#EE6300"/>
<path d="M273.986 131.578L240.281 117.257C241.77 124.245 242.555 131.493 242.555 138.924C242.555 146.356 241.773 153.571 240.291 160.544L273.236 146.3C274.443 145.875 275.541 145.091 276.362 143.985C279.163 140.218 278.372 133.909 273.987 131.578H273.986Z" fill="#EE6300"/>
<path d="M138.998 47.3057C88.3682 47.3057 47.3242 88.332 47.3242 138.94C47.3242 189.549 88.3682 230.575 138.998 230.575C189.629 230.575 230.673 189.549 230.673 138.94C230.673 88.332 189.629 47.3057 138.998 47.3057ZM83.4793 128.697C83.4793 118.392 91.8372 110.036 102.148 110.036C112.46 110.036 120.818 118.39 120.818 128.697C120.818 139.004 112.46 147.358 102.148 147.358C91.8372 147.358 83.4793 139.004 83.4793 128.697ZM164.584 178.725C161.193 184.87 154.002 192.193 138.998 192.193C128.59 192.193 120.215 187.591 114.78 178.886C110.795 172.503 109.836 166.139 109.798 165.872C109.622 164.664 110.097 163.453 111.046 162.685C111.994 161.917 113.277 161.705 114.422 162.126C114.732 162.239 145.527 173.35 162.935 162.441C164.003 161.772 165.349 161.735 166.452 162.345C167.554 162.955 168.237 164.116 168.237 165.374C168.237 165.649 168.196 172.18 164.585 178.724L164.584 178.725ZM193.07 132.069C193.07 134.299 191.261 136.108 189.03 136.108C186.798 136.108 184.989 134.299 184.989 132.069C184.989 131.969 184.994 131.868 185.002 131.77C184.946 130.798 184.674 127.609 183.388 124.551C181.08 119.062 177.457 118.427 174.931 118.427C172.204 118.427 170.12 119.19 168.561 120.761C166.845 122.488 166.005 124.953 165.603 126.717C165.121 128.833 165.127 130.515 165.127 130.531V130.515H165.073C164.758 132.43 163.093 133.892 161.088 133.892C159.083 133.892 157.491 132.494 157.125 130.64H157.048C157.048 130.578 157.045 130.38 157.053 130.071C157.05 130 157.048 129.927 157.048 129.855C157.048 129.651 157.063 129.451 157.093 129.256C157.156 128.269 157.309 126.837 157.664 125.196C158.554 121.097 160.323 117.613 162.778 115.119C165.894 111.955 169.983 110.351 174.931 110.351C182.279 110.351 187.964 114.371 190.941 121.672C193.001 126.724 193.092 131.738 193.095 131.948H193.067C193.068 131.989 193.07 132.03 193.07 132.07V132.069Z" fill="#EE6300"/>
<path d="M225.909 82.6201L239.125 49.2673C239.678 48.1134 239.9 46.7829 239.699 45.4202C239.015 40.7768 233.993 36.8754 229.242 38.3259L195.285 52.0206C207.516 59.9537 217.967 70.3967 225.909 82.6201Z" fill="#EE6300"/>
<path d="M138.985 35.4007C146.397 35.4007 153.628 36.1808 160.6 37.6601L146.364 4.76193C145.939 3.55493 145.154 2.45756 144.048 1.63712C140.279 -1.16228 133.968 -0.371847 131.636 4.01073L117.322 37.6705C124.309 36.1842 131.555 35.4007 138.986 35.4007H138.985Z" fill="#EE6300"/>
<path d="M52.0342 82.6605C59.9662 70.4382 70.4067 59.9953 82.6274 52.0575L49.2879 38.8578C48.1335 38.3051 46.8024 38.0836 45.4391 38.2844C40.7937 38.9686 36.8907 43.9882 38.3418 48.7365L52.0342 82.6617V82.6605Z" fill="#EE6300"/>
<path d="M35.4153 138.925C35.4153 131.527 36.1934 124.31 37.6699 117.351L4.76448 131.579C3.55696 132.003 2.45912 132.788 1.63833 133.893C-1.16343 137.661 -0.371505 143.969 4.01296 146.3L37.6941 160.61C36.2026 153.616 35.4165 146.362 35.4165 138.924L35.4153 138.925Z" fill="#EE6300"/>
<path d="M52.0861 195.269L38.8727 228.612C38.3197 229.766 38.0981 231.097 38.299 232.46C38.9835 237.103 44.0052 241.004 48.7556 239.554L82.7231 225.856C70.4875 217.927 60.032 207.489 52.0861 195.27V195.269Z" fill="#EE6300"/>
<path d="M138.984 242.45C131.578 242.45 124.353 241.671 117.388 240.194L131.635 273.118C132.06 274.325 132.845 275.422 133.951 276.243C137.72 279.042 144.032 278.252 146.363 273.869L160.693 240.171C153.693 241.663 146.43 242.451 138.986 242.451L138.984 242.45Z" fill="#EE6300"/>
<path d="M225.945 195.174C218.009 207.408 207.559 217.863 195.326 225.805L228.711 239.023C229.866 239.576 231.197 239.797 232.56 239.597C237.205 238.912 241.109 233.893 239.657 229.144L225.946 195.174H225.945Z" fill="#EE6300"/>
</svg>
