<svg width="40" height="40" viewBox="0 0 40 40" fill="none" xmlns="http://www.w3.org/2000/svg">
<path d="M3.33325 15.8334C3.33329 13.9787 3.89591 12.1677 4.94681 10.6395C5.99771 9.11127 7.48745 7.93779 9.21927 7.27403C10.9511 6.61026 12.8435 6.48743 14.6466 6.92177C16.4497 7.3561 18.0786 8.32716 19.3183 9.70669C19.4056 9.80005 19.5111 9.87448 19.6284 9.92536C19.7456 9.97624 19.8721 10.0025 19.9999 10.0025C20.1277 10.0025 20.2542 9.97624 20.3715 9.92536C20.4887 9.87448 20.5943 9.80005 20.6816 9.70669C21.9173 8.31819 23.5466 7.33897 25.3526 6.89936C27.1587 6.45975 29.0557 6.5806 30.7914 7.24583C32.527 7.91106 34.0189 9.08911 35.0684 10.6232C36.118 12.1573 36.6754 13.9746 36.6666 15.8334C36.6666 19.65 34.1666 22.5 31.6666 25L22.5133 33.855C22.2027 34.2117 21.8198 34.4982 21.39 34.6955C20.9602 34.8928 20.4933 34.9964 20.0204 34.9994C19.5475 35.0024 19.0793 34.9048 18.6471 34.7129C18.2148 34.5211 17.8283 34.2394 17.5133 33.8867L8.33325 25C5.83325 22.5 3.33325 19.6667 3.33325 15.8334Z" fill="black" stroke="black" stroke-width="2" stroke-linecap="round" stroke-linejoin="round"/>
</svg>
