<svg width="72" height="70" viewBox="0 0 72 70" fill="none" xmlns="http://www.w3.org/2000/svg">
<g clip-path="url(#clip0_6_214)">
<path d="M69.3526 9.62265C67.8242 8.08237 65.7922 7.23436 63.6307 7.23436H62.2127V5.26536C62.2127 4.56679 61.6508 4.00016 60.9573 4.00016H52.1024C51.4092 4.00016 50.847 4.56644 50.847 5.26536V7.23436H48.4976L48.169 4.31445C47.8922 1.85511 45.8314 0.000549316 43.3754 0.000549316H28.3468C25.8908 0.000549316 23.8299 1.85511 23.5532 4.31445L23.2246 7.23436H8.09184C5.93031 7.23436 3.89832 8.08272 2.3699 9.62265C0.841829 11.1629 0 13.2107 0 15.389V48.4744C0 50.6526 0.841829 52.7004 2.37025 54.2407C3.89867 55.781 5.93066 56.6293 8.09219 56.6293H20.8974C20.3755 55.5381 19.8792 54.4563 19.4117 53.3881C19.2801 53.0875 19.0224 52.4992 19.0224 52.4992C18.9606 52.3581 18.8995 52.2185 18.8384 52.0795H8.09184C6.11924 52.0795 4.51476 50.4623 4.51476 48.4747V15.389C4.51476 13.4011 6.11958 11.7842 8.09184 11.7842H27.2563L28.0391 4.82683C28.0568 4.66898 28.1891 4.54999 28.3468 4.54999H43.3754C43.5331 4.54999 43.665 4.66898 43.6831 4.82683L44.4659 11.7842H63.6303C65.6029 11.7842 67.2074 13.4014 67.2074 15.389V48.4744C67.2074 50.4623 65.6026 52.0792 63.6303 52.0792H52.8842C52.8234 52.2181 52.7623 52.3578 52.7004 52.4985L52.3108 53.3878C51.843 54.4559 51.3467 55.5377 50.8251 56.629H63.6303C65.7919 56.629 67.8239 55.7806 69.3523 54.2403C70.8807 52.7001 71.7225 50.6523 71.7225 48.474V15.389C71.7225 13.2107 70.8807 11.1629 69.3523 9.62265H69.3526Z" fill="#EE6300"/>
<path d="M35.8613 40.8075C39.8458 40.8075 43.0759 37.5523 43.0759 33.5369C43.0759 29.5215 39.8458 26.2664 35.8613 26.2664C31.8768 26.2664 28.6467 29.5215 28.6467 33.5369C28.6467 37.5523 31.8768 40.8075 35.8613 40.8075Z" fill="#EE6300"/>
<path d="M54.0979 29.0522C53.853 27.8462 53.4877 26.6597 53.0119 25.5261C52.5451 24.4139 51.9676 23.3412 51.2949 22.3381C50.6295 21.3456 49.8655 20.4122 49.024 19.5642C48.1825 18.7161 47.2563 17.9462 46.2714 17.2756C45.276 16.598 44.2116 16.016 43.1079 15.5453C41.983 15.0658 40.8057 14.6976 39.609 14.4509C38.3827 14.1982 37.1217 14.0698 35.861 14.0698C34.6004 14.0698 33.3394 14.1979 32.1131 14.4509C30.9163 14.6976 29.7394 15.0658 28.6141 15.5453C27.5105 16.0157 26.446 16.5977 25.4507 17.2756C24.4658 17.9462 23.5395 18.7161 22.6981 19.5642C21.8566 20.4122 21.0925 21.3456 20.4271 22.3381C19.7548 23.3412 19.1769 24.4139 18.7101 25.5261C18.2344 26.6597 17.869 27.8462 17.6242 29.0522C17.3734 30.288 17.246 31.5588 17.246 32.8292C17.246 39.0488 19.1182 43.081 22.8106 51.5149C24.1306 54.5296 25.6778 57.6567 27.4094 60.8097C28.653 63.0741 29.9616 65.2993 31.2983 67.4234C31.8019 68.2234 32.5034 68.879 33.3276 69.3189C34.103 69.7329 34.9793 69.952 35.861 69.952C36.7428 69.952 37.619 69.7329 38.3945 69.3189C39.2183 68.879 39.9201 68.2234 40.4237 67.4234C41.7604 65.2993 43.0687 63.0741 44.3127 60.8097C46.0442 57.6567 47.5918 54.5296 48.9115 51.5149C52.6038 43.081 54.4761 39.0488 54.4761 32.8292C54.4761 31.5588 54.349 30.288 54.0979 29.0522ZM48.0752 38.7373C47.7428 39.529 47.3316 40.2926 46.8527 41.007C46.3787 41.7143 45.8341 42.3793 45.2344 42.9837C44.6346 43.5881 43.9747 44.1365 43.2729 44.6146C42.5641 45.0972 41.8066 45.5116 41.0207 45.8465C39.386 46.5434 37.6499 46.8968 35.8607 46.8968C34.0714 46.8968 32.3353 46.5434 30.7007 45.8465C29.9151 45.5116 29.1573 45.0972 28.4485 44.6146C27.7466 44.1369 27.0868 43.5881 26.487 42.9837C25.8872 42.3793 25.343 41.7143 24.8686 41.007C24.3897 40.2926 23.9785 39.5293 23.6462 38.7373C22.9547 37.0899 22.604 35.3404 22.604 33.5373C22.604 31.7341 22.9547 29.9846 23.6462 28.3372C23.9785 27.5455 24.3897 26.7819 24.8686 26.0676C25.3427 25.3602 25.8872 24.6953 26.487 24.0908C27.0868 23.4864 27.7466 22.938 28.4485 22.4599C29.1573 21.9773 29.9147 21.5629 30.7007 21.228C32.3353 20.5312 34.0714 20.1777 35.8607 20.1777C37.6499 20.1777 39.386 20.5312 41.0207 21.228C41.8063 21.5629 42.5641 21.9773 43.2729 22.4599C43.9747 22.9377 44.6346 23.4864 45.2344 24.0908C45.8341 24.6953 46.3783 25.3602 46.8527 26.0676C47.3316 26.7819 47.7428 27.5452 48.0752 28.3372C48.7666 29.9846 49.1174 31.7341 49.1174 33.5373C49.1174 35.3404 48.7666 37.0899 48.0752 38.7373Z" fill="#EE6300"/>
</g>
<defs>
<clipPath id="clip0_6_214">
<rect width="71.7225" height="69.9516" fill="white"/>
</clipPath>
</defs>
</svg>
