<svg width="28" height="41" viewBox="0 0 28 41" fill="none" xmlns="http://www.w3.org/2000/svg">
<g clip-path="url(#clip0_5_22)">
<path d="M14.0002 19.6172C16.9969 19.6172 19.4262 17.2289 19.4262 14.2828C19.4262 11.3368 16.9969 8.94849 14.0002 8.94849C11.0035 8.94849 8.57422 11.3368 8.57422 14.2828C8.57422 17.2289 11.0035 19.6172 14.0002 19.6172Z" fill="#2B2B2B"/>
<path d="M27.7158 10.9925C27.5317 10.1076 27.2569 9.23713 26.8991 8.40542C26.548 7.58938 26.1137 6.80235 25.6077 6.06642C25.1073 5.33819 24.5327 4.65336 23.8998 4.03118C23.2669 3.40901 22.5703 2.84409 21.8296 2.3521C21.081 1.85498 20.2805 1.42795 19.4504 1.08258C18.6044 0.730795 17.719 0.460663 16.8189 0.279633C15.8966 0.0942381 14.9483 0 14.0001 0C13.052 0 12.1036 0.0939813 11.1813 0.279633C10.2813 0.460663 9.39611 0.730795 8.54984 1.08258C7.71978 1.42769 6.91923 1.85472 6.17065 2.3521C5.42991 2.84409 4.73331 3.40901 4.10045 4.03118C3.46758 4.65336 2.89296 5.33819 2.39251 6.06642C1.88685 6.80235 1.45223 7.58938 1.10118 8.40542C0.743351 9.23713 0.468578 10.1076 0.284438 10.9925C0.0955961 11.8989 0 12.8313 0 13.7636C0 18.3269 1.40808 21.2852 4.18507 27.4731C5.17786 29.685 6.34147 31.9793 7.64377 34.2927C8.5791 35.954 9.56327 37.5866 10.5686 39.145C10.9473 39.732 11.4749 40.213 12.0947 40.5357C12.678 40.8395 13.337 41.0003 14.0001 41.0003C14.6633 41.0003 15.3223 40.8395 15.9055 40.5357C16.5251 40.213 17.0529 39.732 17.4317 39.145C18.437 37.5866 19.4209 35.954 20.3565 34.2927C21.6588 31.9793 22.8227 29.685 23.8152 27.4731C26.5922 21.2852 28.0003 18.3269 28.0003 13.7636C28.0003 12.8315 27.9047 11.8992 27.7158 10.9925ZM23.1862 18.0983C22.9363 18.6792 22.627 19.2395 22.2668 19.7636C21.9103 20.2825 21.5008 20.7704 21.0497 21.2138C20.5986 21.6573 20.1023 22.0597 19.5745 22.4104C19.0414 22.7645 18.4717 23.0686 17.8807 23.3143C16.6512 23.8256 15.3455 24.0849 13.9999 24.0849C12.6542 24.0849 11.3485 23.8256 10.1191 23.3143C9.52827 23.0686 8.95835 22.7645 8.42526 22.4104C7.89739 22.0599 7.40112 21.6573 6.95005 21.2138C6.49897 20.7704 6.08968 20.2825 5.73289 19.7636C5.37271 19.2395 5.06346 18.6794 4.8135 18.0983C4.29347 16.8897 4.02966 15.606 4.02966 14.2831C4.02966 12.9602 4.29347 11.6765 4.8135 10.4679C5.06346 9.88704 5.37271 9.32675 5.73289 8.80266C6.08942 8.28371 6.49897 7.79583 6.95005 7.35237C7.40112 6.90891 7.89739 6.50654 8.42526 6.15578C8.95835 5.80168 9.52801 5.49765 10.1191 5.25191C11.3485 4.74066 12.6542 4.48132 13.9999 4.48132C15.3455 4.48132 16.6512 4.74066 17.8807 5.25191C18.4715 5.49765 19.0414 5.80168 19.5745 6.15578C20.1023 6.50628 20.5986 6.90891 21.0497 7.35237C21.5008 7.79583 21.9101 8.28371 22.2668 8.80266C22.627 9.32675 22.9363 9.88679 23.1862 10.4679C23.7063 11.6765 23.9701 12.9602 23.9701 14.2831C23.9701 15.606 23.7063 16.8897 23.1862 18.0983Z" fill="#2B2B2B"/>
</g>
<defs>
<clipPath id="clip0_5_22">
<rect width="28" height="41" fill="white"/>
</clipPath>
</defs>
</svg>
